<?xml version="1.0" standalone="no"?>
<!DOCTYPE svg PUBLIC "-//W3C//DTD SVG 20010904//EN"
 "http://www.w3.org/TR/2001/REC-SVG-20010904/DTD/svg10.dtd">
<svg version="1.0" xmlns="http://www.w3.org/2000/svg"
 width="1000.000000pt" height="1000.000000pt" viewBox="0 0 1000.000000 1000.000000"
 preserveAspectRatio="xMidYMid meet">
<metadata>
Created by potrace 1.14, written by Peter Selinger 2001-2017
</metadata>
<g transform="translate(0.000000,1000.000000) scale(0.100000,-0.100000)"
fill="#000000" stroke="none">
<path d="M5137 9204 c-1 -1 -27 -5 -57 -8 -64 -7 -116 -15 -185 -31 -16 -3
-39 -8 -50 -10 -29 -6 -137 -33 -240 -60 -33 -9 -68 -17 -77 -19 -10 -1 -21
-5 -24 -9 -4 -4 -15 -7 -24 -7 -18 0 -112 -36 -207 -81 -34 -16 -65 -29 -67
-29 -7 0 -207 -95 -261 -123 -22 -12 -67 -36 -100 -54 -119 -64 -250 -126
-295 -138 -23 -7 -112 -56 -135 -75 -18 -15 -50 -34 -75 -46 -21 -10 -115 -89
-179 -151 -30 -29 -59 -53 -63 -53 -12 0 -148 -112 -148 -121 0 -9 -130 -109
-255 -196 -44 -30 -96 -73 -410 -333 -115 -95 -230 -193 -255 -216 -162 -152
-295 -283 -377 -374 -53 -58 -188 -200 -302 -315 -113 -116 -223 -235 -243
-265 -20 -30 -64 -93 -98 -140 -33 -47 -68 -96 -77 -110 -48 -70 -211 -278
-243 -310 -3 -3 -12 -18 -22 -35 -85 -155 -118 -280 -124 -471 l-3 -121 32
-49 c18 -27 40 -66 49 -86 47 -100 279 -358 357 -396 20 -10 63 -33 96 -52 77
-43 99 -53 173 -81 20 -8 45 -18 97 -40 11 -5 52 -15 90 -23 39 -9 95 -22 125
-31 30 -8 82 -17 115 -20 33 -3 103 -14 155 -24 52 -10 98 -17 102 -15 3 2 37
-2 74 -10 37 -8 73 -12 79 -10 7 3 15 -2 19 -11 5 -14 20 -15 118 -10 62 4
116 9 120 12 10 6 44 12 98 19 24 3 49 8 54 11 5 3 19 8 30 9 12 2 59 13 106
24 105 25 126 29 170 36 19 2 47 7 61 10 17 3 26 0 26 -8 0 -7 4 -47 8 -88 15
-158 15 -150 -3 -150 -9 0 -35 -14 -56 -30 -22 -17 -46 -30 -53 -30 -7 0 -18
-12 -23 -26 -13 -33 -13 -34 8 -28 9 3 1 -9 -18 -27 -19 -18 -34 -40 -32 -49
1 -9 -16 -31 -40 -50 -23 -19 -52 -44 -64 -56 -12 -12 -29 -24 -38 -27 -9 -4
-16 -12 -16 -19 0 -8 -45 -47 -100 -87 -55 -41 -100 -78 -100 -82 0 -5 -7 -9
-15 -9 -9 0 -20 -12 -25 -26 -13 -33 -13 -34 7 -28 10 3 2 -9 -17 -27 -19 -18
-34 -40 -32 -49 1 -9 -16 -31 -40 -50 -24 -19 -61 -54 -83 -77 -22 -23 -80
-71 -130 -108 -49 -37 -98 -75 -108 -86 -28 -30 -20 -56 16 -50 4 0 7 -5 7
-13 0 -21 25 -27 62 -15 58 19 153 66 167 83 8 9 28 16 50 16 20 0 52 4 70 10
27 7 32 7 23 -2 -7 -7 -12 -20 -12 -29 0 -21 45 -28 105 -16 22 5 58 10 80 12
22 1 76 15 120 29 44 15 112 36 150 48 39 12 88 29 110 38 22 9 51 20 65 23
l26 6 -2 -247 c-1 -232 -3 -256 -32 -402 -17 -85 -36 -207 -42 -270 -6 -63
-13 -133 -16 -155 -2 -22 -6 -60 -8 -85 -3 -25 -9 -82 -15 -128 -7 -53 -7 -92
-1 -108 6 -14 7 -36 4 -49 -4 -16 0 -27 15 -37 12 -8 18 -17 15 -21 -11 -11 7
-46 27 -52 10 -4 19 -12 19 -20 0 -17 23 -23 73 -21 42 3 51 -11 10 -16 -21
-2 -29 -9 -31 -27 -2 -13 2 -28 10 -32 10 -7 9 -9 -4 -9 -10 0 -18 -6 -18 -13
0 -7 -10 -17 -22 -22 -12 -6 -26 -24 -30 -41 -8 -34 -4 -32 -128 -52 -37 -6
-46 -11 -48 -31 -2 -13 2 -28 10 -32 10 -7 9 -9 -4 -9 -10 0 -18 -7 -18 -15 0
-8 -6 -15 -14 -15 -21 0 -34 -22 -42 -67 -6 -37 -4 -42 17 -48 21 -7 19 -9
-17 -22 -21 -8 -59 -18 -84 -22 -38 -5 -46 -10 -48 -30 -2 -13 2 -28 10 -32
10 -7 9 -9 -4 -9 -10 0 -18 -6 -18 -13 0 -7 -10 -17 -22 -22 -12 -6 -26 -24
-30 -41 -8 -34 -4 -32 -128 -52 -37 -6 -46 -11 -48 -31 -2 -13 2 -28 10 -32
10 -7 9 -9 -4 -9 -10 0 -18 -7 -18 -15 0 -8 -6 -15 -14 -15 -21 0 -34 -22 -42
-67 -6 -37 -4 -42 17 -49 l24 -8 -25 -6 c-33 -8 -42 -59 -11 -67 16 -4 19 -11
14 -35 -5 -24 -2 -30 16 -35 11 -3 21 -11 21 -18 0 -7 8 -16 18 -19 9 -4 30
-13 45 -22 34 -19 137 -22 227 -6 36 6 171 12 300 13 129 0 249 2 265 4 49 6
108 16 146 26 20 5 58 13 85 19 27 5 110 23 184 41 74 17 148 33 164 35 16 2
45 8 65 14 20 5 53 11 73 14 21 2 42 7 47 11 6 3 89 19 185 35 96 17 207 37
248 46 40 9 93 20 118 25 25 4 101 20 170 34 69 15 134 28 145 29 70 10 113
20 130 29 11 6 23 10 27 9 3 -1 30 5 60 12 101 27 376 71 498 81 36 3 85 8
110 10 64 6 366 25 555 34 153 8 1349 5 1675 -4 113 -3 189 -11 282 -29 69
-15 132 -24 140 -21 8 3 28 -1 44 -10 26 -13 29 -13 32 1 2 9 10 13 18 10 8
-3 21 -9 30 -12 10 -5 17 0 21 15 4 17 10 20 30 15 24 -6 25 -5 21 30 -3 25 0
36 9 36 9 0 13 14 13 42 0 33 3 39 12 30 20 -20 38 -14 38 13 0 22 3 24 25 15
20 -8 25 -6 25 6 0 10 5 14 15 10 8 -3 22 -9 31 -12 10 -5 17 0 21 15 4 17 10
20 30 15 24 -6 25 -5 21 30 -3 25 0 36 9 36 9 0 13 14 13 42 0 33 3 39 12 30
23 -23 38 -13 38 26 0 54 10 84 26 78 8 -3 21 -9 30 -12 10 -5 17 0 21 15 4
17 10 20 30 15 24 -6 25 -5 21 30 -3 25 0 36 9 36 9 0 13 14 13 42 0 33 3 39
12 30 20 -20 38 -14 38 13 0 22 3 24 25 15 20 -8 25 -6 25 6 0 10 5 14 15 10
8 -3 22 -9 31 -12 10 -5 17 0 21 15 4 17 10 20 30 15 24 -6 25 -5 21 30 -3 25
0 36 9 36 9 0 13 14 13 42 0 33 3 39 12 30 42 -42 52 54 18 173 -30 105 -46
175 -75 340 -32 177 -71 353 -86 379 -6 10 -12 28 -15 40 -2 11 -17 66 -33
121 -47 162 -69 244 -97 355 -14 58 -34 131 -44 162 -11 31 -22 71 -25 90 -3
18 -7 44 -10 58 -2 14 -7 63 -10 110 -3 47 -14 139 -25 205 -20 122 -57 392
-85 610 -8 66 -19 143 -24 170 -6 28 -13 82 -16 120 -16 173 -21 203 -90 500
-55 235 -63 341 -46 568 17 216 17 350 0 356 -14 6 -21 29 -20 68 1 29 -11 35
-43 23 -21 -8 -26 -7 -26 6 0 13 -7 15 -35 10 -19 -4 -35 -3 -34 1 1 4 1 19 0
32 -1 22 -3 23 -48 16 -27 -4 -56 -11 -67 -17 -13 -7 -21 -7 -26 2 -6 10 -17
9 -49 -4 -23 -9 -49 -16 -59 -16 -21 0 -360 -138 -414 -168 -31 -18 -111 -54
-338 -153 -25 -11 -52 -24 -60 -29 -35 -23 -291 -143 -360 -170 -19 -7 -44
-22 -56 -32 -11 -10 -24 -18 -28 -18 -5 0 -56 -23 -115 -51 -58 -28 -127 -59
-152 -69 -26 -11 -82 -38 -125 -61 -108 -58 -353 -179 -363 -179 -5 0 -19 -8
-32 -19 -24 -18 -181 -101 -192 -101 -4 0 1 15 11 33 10 17 29 59 42 92 12 33
33 80 45 105 25 50 44 94 74 173 4 12 13 34 20 50 6 15 16 38 21 52 24 61 33
81 41 97 5 10 9 22 9 28 0 6 9 32 21 58 27 60 48 111 69 167 5 11 17 41 29 67
12 26 21 54 21 62 0 8 5 18 10 21 6 3 10 15 10 26 0 10 5 19 10 19 6 0 10 7
10 15 0 16 81 173 159 310 27 46 68 124 92 172 24 48 47 90 51 91 5 2 8 10 8
17 0 18 67 144 113 214 20 29 79 140 131 245 80 158 97 201 101 250 3 32 7 62
10 66 7 12 18 139 18 225 1 69 -4 92 -35 170 -70 177 -106 239 -184 317 -117
118 -221 197 -306 235 -21 9 -38 20 -38 25 0 4 -7 8 -16 8 -9 0 -46 23 -82 52
-80 62 -200 124 -273 139 -30 6 -58 15 -64 19 -10 8 -104 26 -118 22 -5 -1
-45 4 -90 12 -78 14 -140 21 -285 31 -35 3 -68 8 -74 11 -8 5 -265 13 -271 8z
m-577 -1349 c214 -10 293 -20 385 -50 22 -7 54 -16 70 -19 60 -13 190 -85 232
-128 45 -47 85 -139 86 -198 1 -47 -11 -179 -17 -188 -2 -4 -5 -50 -7 -102 -1
-52 -5 -113 -10 -135 -4 -22 -10 -62 -13 -90 -7 -68 -36 -217 -44 -230 -6 -9
-10 -30 -13 -75 0 -8 -3 -22 -6 -30 -6 -15 -7 -22 -17 -75 -4 -16 -8 -39 -11
-50 -2 -11 -16 -74 -30 -140 -13 -66 -29 -129 -34 -140 -6 -11 -17 -49 -25
-85 -8 -36 -24 -99 -36 -140 -11 -41 -25 -93 -30 -115 -6 -22 -14 -49 -19 -60
-4 -11 -16 -47 -27 -80 -10 -33 -21 -67 -25 -75 -3 -8 -15 -42 -25 -75 -19
-63 -72 -172 -115 -240 -14 -22 -40 -66 -58 -97 -30 -56 -92 -148 -119 -178
-7 -8 -34 -44 -60 -80 -65 -90 -66 -91 -135 -111 -34 -10 -96 -28 -137 -39
-41 -12 -80 -26 -86 -31 -6 -5 -42 -18 -80 -29 -38 -12 -74 -23 -80 -25 -8 -2
-11 66 -11 248 1 225 -8 466 -18 507 -2 8 -7 74 -11 145 -3 72 -8 153 -9 180
-2 28 3 70 11 95 14 44 13 48 -11 98 -14 28 -25 63 -25 76 0 13 -7 29 -15 36
-8 7 -15 18 -15 25 0 23 -52 106 -99 157 -39 43 -53 51 -84 52 -20 1 -42 7
-49 14 -7 7 -19 12 -28 12 -26 0 -209 95 -246 128 -19 17 -49 34 -66 38 -18 3
-50 17 -71 31 -64 40 -87 46 -103 26 -7 -10 -11 -24 -9 -30 3 -9 -7 -13 -33
-13 -89 -1 -294 -147 -335 -240 -11 -25 -32 -59 -46 -76 -14 -18 -37 -51 -51
-74 -16 -26 -38 -47 -60 -56 -51 -22 -98 -71 -129 -137 l-28 -57 23 -72 c14
-41 36 -85 53 -102 39 -42 90 -138 82 -156 -3 -8 -12 -16 -20 -18 -27 -6 -142
22 -231 55 -8 3 -23 8 -33 10 -28 5 -78 33 -82 46 -3 7 -7 28 -9 47 -3 19 -8
51 -12 70 -19 101 7 421 37 455 5 5 9 16 9 26 0 35 100 313 119 329 3 3 19 32
35 65 28 56 140 248 158 270 13 15 79 108 118 165 19 28 43 60 53 71 9 10 17
23 17 29 0 5 12 17 28 27 15 9 48 34 73 55 26 21 51 38 56 38 6 0 18 9 28 20
10 11 23 20 30 20 7 0 20 9 30 20 9 10 20 18 24 17 3 -1 26 12 51 28 25 15 66
40 93 54 26 14 73 40 105 58 99 55 228 115 235 110 2 -1 14 5 27 14 21 13 47
23 90 34 3 0 39 12 80 25 41 13 77 25 80 25 3 1 25 7 50 14 25 7 52 15 60 17
8 2 33 8 56 13 23 6 56 12 75 15 19 2 41 7 49 10 8 3 35 8 60 11 25 3 68 8 95
11 28 3 52 8 54 10 2 2 13 2 25 -1 12 -2 82 -7 156 -10z m2199 -2892 c86 -93
181 -210 181 -225 0 -3 22 -40 49 -80 54 -80 155 -269 192 -358 13 -30 28 -58
33 -62 6 -4 7 -8 2 -8 -5 0 -3 -7 4 -15 14 -16 41 -91 127 -340 30 -88 62
-173 70 -188 8 -16 12 -31 9 -35 -3 -3 -1 -11 4 -18 6 -6 12 -20 15 -30 2 -11
13 -48 25 -84 12 -36 25 -78 30 -95 5 -16 16 -55 25 -85 9 -30 23 -79 31 -109
8 -30 21 -68 28 -85 7 -17 25 -71 40 -121 15 -49 31 -103 36 -118 9 -27 7 -30
-46 -53 -30 -13 -61 -24 -69 -24 -8 0 -15 -3 -15 -8 0 -15 -406 -150 -505
-168 -44 -8 -111 -28 -122 -36 -6 -5 -25 -11 -41 -13 -16 -2 -54 -11 -83 -19
-30 -8 -65 -17 -79 -20 -14 -2 -68 -14 -120 -26 -52 -12 -104 -23 -114 -26
-141 -28 -267 -56 -291 -63 -16 -5 -48 -12 -70 -16 -22 -4 -44 -10 -50 -13 -5
-3 -16 -7 -25 -8 -8 -1 -42 -9 -76 -18 -34 -8 -72 -17 -85 -20 -38 -8 -196
-44 -294 -66 -49 -12 -99 -23 -110 -25 -119 -26 -181 -40 -240 -58 -38 -12
-77 -22 -85 -23 -8 -1 -60 -12 -115 -24 -55 -12 -111 -24 -125 -26 -14 -3 -90
-18 -170 -34 -80 -16 -215 -41 -300 -56 -85 -16 -157 -31 -160 -34 -3 -3 -21
-5 -40 -5 -19 0 -42 -3 -51 -7 -9 -4 -47 -10 -85 -13 -38 -3 -80 -8 -94 -10
-14 -3 -50 -7 -80 -10 -30 -2 -120 -12 -200 -20 -548 -60 -552 -61 -544 -41 3
9 13 15 22 14 13 -2 19 13 30 69 12 59 18 73 33 73 10 0 21 -4 24 -10 8 -12
45 -13 45 -1 0 5 8 7 19 4 13 -3 20 2 25 21 4 17 11 23 21 20 8 -4 18 1 21 10
3 9 13 15 22 14 13 -2 19 13 30 69 10 50 19 73 29 73 8 0 19 13 24 29 7 21 15
27 28 24 13 -3 20 2 25 21 4 17 11 23 21 20 8 -4 18 1 21 10 3 9 13 15 22 14
13 -2 19 13 30 70 12 58 18 72 33 72 10 0 21 -4 24 -10 8 -12 45 -13 45 -1 0
5 8 7 19 4 13 -3 20 2 25 21 4 17 11 23 21 20 8 -4 18 1 21 10 3 9 13 15 22
14 13 -2 19 13 30 69 11 54 19 72 33 76 15 4 19 14 19 50 0 25 11 76 24 114
46 133 57 175 61 246 9 140 25 176 72 169 14 -2 23 3 28 17 3 12 10 21 15 21
5 0 29 42 55 94 53 109 72 133 102 128 14 -2 23 3 28 17 3 12 10 21 15 21 5 0
28 38 50 84 41 88 61 113 52 71 -2 -14 -1 -32 2 -42 6 -14 12 -12 39 18 22 23
39 33 54 31 14 -2 23 3 28 17 3 12 10 21 15 21 4 0 41 66 81 148 41 81 83 155
94 166 11 10 48 31 83 47 86 40 184 85 267 122 39 17 77 37 86 44 8 7 18 13
21 13 3 0 66 29 139 64 74 35 157 73 184 86 28 12 57 28 65 35 8 7 92 52 185
100 94 48 181 95 195 105 23 16 195 100 205 100 7 0 189 88 215 104 24 15 180
89 210 99 31 11 41 4 129 -90z m-3886 -257 c6 -16 -49 -26 -80 -15 -14 5 -11
9 17 17 49 14 57 14 63 -2z"/>
</g>
</svg>
